<svg width="157" height="55" viewBox="0 0 157 55" fill="none" xmlns="http://www.w3.org/2000/svg">
<path fill-rule="evenodd" clip-rule="evenodd" d="M54.2996 27.5C54.2996 42.301 42.301 54.2996 27.5 54.2996C16.8554 54.2996 7.6602 48.0936 3.33533 39.1024L27.5 14.9377L39.4342 26.8719L51.2444 15.0617C53.1956 18.7789 54.2996 23.0105 54.2996 27.5ZM27.5 31.6874C29.8127 31.6874 31.6874 29.8127 31.6874 27.5C31.6874 25.1874 29.8127 23.3126 27.5 23.3126C25.1874 23.3126 23.3126 25.1874 23.3126 27.5C23.3126 29.8127 25.1874 31.6874 27.5 31.6874Z" fill="#002D42"/>
<path d="M2.01567 35.8159C1.16197 33.198 0.700439 30.4029 0.700439 27.5C0.700439 12.699 12.699 0.700439 27.5 0.700439C36.5039 0.700439 44.4707 5.1407 49.3302 11.951L46.9235 14.3576C42.7067 8.13768 35.5807 4.05038 27.5 4.05038C14.5491 4.05038 4.05038 14.5491 4.05038 27.5C4.05038 29.4324 4.28412 31.3102 4.72487 33.1067L2.01567 35.8159Z" fill="#219EBC"/>
<path d="M60.5057 24.7004L67.7441 5.79402H70.1479L77.3324 24.7004H75.0366L70.418 12.4383C70.292 12.0962 70.1479 11.7 69.9859 11.2499C69.8418 10.7817 69.6798 10.3045 69.4997 9.81838C69.3377 9.31421 69.1756 8.82805 69.0136 8.35989C68.8695 7.89173 68.7345 7.47759 68.6084 7.11747H69.1486C69.0046 7.56762 68.8515 8.02677 68.6895 8.49493C68.5454 8.94509 68.3924 9.40424 68.2303 9.8724C68.0682 10.3226 67.9062 10.7727 67.7441 11.2229C67.5821 11.673 67.42 12.1232 67.258 12.5733L62.6664 24.7004H60.5057ZM63.5847 19.4877L64.368 17.435H73.308L74.1723 19.4877H63.5847ZM80.7856 24.7004V5.79402H88.2671C89.2574 5.79402 90.1487 6.0371 90.941 6.52326C91.7333 7.00943 92.3635 7.68466 92.8316 8.54895C93.2998 9.39524 93.5339 10.3496 93.5339 11.4119C93.5339 12.5283 93.2998 13.5276 92.8316 14.4099C92.3635 15.2742 91.7333 15.9675 90.941 16.4896C90.1487 16.9938 89.2574 17.2459 88.2671 17.2459H82.8923V24.7004H80.7856ZM82.8923 15.1932H88.3751C88.9333 15.1932 89.4285 15.0312 89.8606 14.707C90.3108 14.3649 90.6709 13.9148 90.941 13.3566C91.2111 12.7804 91.3461 12.1232 91.3461 11.3849C91.3461 10.7187 91.2111 10.1245 90.941 9.60231C90.6709 9.06213 90.3108 8.63898 89.8606 8.33288C89.4285 8.00877 88.9333 7.84671 88.3751 7.84671H82.8923V15.1932ZM97.5872 24.7004V5.79402H109.039V7.84671H99.6939V22.6477H108.985V24.7004H97.5872ZM98.5595 16.0035V13.9508H107.527V16.0035H98.5595ZM125.289 24.7004L119.023 15.8414L111.784 5.79402H114.431L120.292 14.1669L127.936 24.7004H125.289ZM111.649 24.7004L118.779 14.518L120.103 16.0305L114.08 24.7004H111.649ZM120.697 15.7334L119.455 14.2479L125.208 5.79402H127.665L120.697 15.7334Z" fill="#002D42"/>
<path d="M60.0263 49.5589V30.6525H64.6179V49.5589H60.0263ZM62.1601 42.3204V38.4851H71.9374V42.3204H62.1601ZM62.1601 34.7039V30.6525H73.0448V34.7039H62.1601ZM85.101 49.829C83.6605 49.829 82.3461 49.5859 81.1576 49.0997C79.9692 48.6136 78.9339 47.9293 78.0516 47.047C77.1693 46.1647 76.4851 45.1294 75.9989 43.941C75.5127 42.7526 75.2696 41.4471 75.2696 40.0247C75.2696 38.6022 75.5127 37.2967 75.9989 36.1083C76.4851 34.9199 77.1693 33.8846 78.0516 33.0023C78.9339 32.12 79.9692 31.4357 81.1576 30.9496C82.3461 30.4634 83.6515 30.2203 85.074 30.2203C86.4965 30.2203 87.8019 30.4634 88.9903 30.9496C90.1787 31.4357 91.2141 32.12 92.0964 33.0023C92.9787 33.8846 93.6539 34.9199 94.1221 36.1083C94.6082 37.2967 94.8513 38.6022 94.8513 40.0247C94.8513 41.4291 94.6082 42.7346 94.1221 43.941C93.6539 45.1294 92.9787 46.1647 92.0964 47.047C91.2141 47.9293 90.1787 48.6136 88.9903 49.0997C87.8019 49.5859 86.5055 49.829 85.101 49.829ZM85.074 45.5075C85.8122 45.5075 86.4875 45.3725 87.0997 45.1024C87.7299 44.8323 88.2701 44.4542 88.7202 43.968C89.1884 43.4638 89.5485 42.8786 89.8006 42.2124C90.0527 41.5462 90.1787 40.8169 90.1787 40.0247C90.1787 39.2324 90.0527 38.5031 89.8006 37.8369C89.5485 37.1707 89.1884 36.5945 88.7202 36.1083C88.2701 35.6042 87.7299 35.217 87.0997 34.9469C86.4875 34.6768 85.8122 34.5418 85.074 34.5418C84.3357 34.5418 83.6515 34.6768 83.0213 34.9469C82.4091 35.217 81.8689 35.6042 81.4007 36.1083C80.9326 36.5945 80.5724 37.1707 80.3204 37.8369C80.0863 38.5031 79.9692 39.2324 79.9692 40.0247C79.9692 40.8169 80.0863 41.5552 80.3204 42.2394C80.5724 42.9056 80.9326 43.4818 81.4007 43.968C81.8689 44.4542 82.4091 44.8323 83.0213 45.1024C83.6515 45.3725 84.3357 45.5075 85.074 45.5075ZM106.993 49.829C105.57 49.829 104.256 49.5949 103.049 49.1268C101.861 48.6406 100.825 47.9654 99.9432 47.1011C99.0609 46.2188 98.3766 45.1834 97.8905 43.995C97.4223 42.7886 97.1882 41.4651 97.1882 40.0247C97.1882 38.6202 97.4403 37.3237 97.9445 36.1353C98.4487 34.9469 99.1419 33.9206 100.024 33.0563C100.924 32.174 101.978 31.4898 103.184 31.0036C104.409 30.5174 105.741 30.2743 107.182 30.2743C108.082 30.2743 108.964 30.3914 109.829 30.6255C110.693 30.8595 111.494 31.2107 112.232 31.6788C112.989 32.129 113.637 32.6692 114.177 33.2994L111.368 36.5135C110.99 36.1173 110.585 35.7752 110.153 35.4871C109.738 35.181 109.279 34.9469 108.775 34.7849C108.271 34.6228 107.731 34.5418 107.155 34.5418C106.434 34.5418 105.75 34.6768 105.102 34.9469C104.472 35.199 103.914 35.5681 103.427 36.0543C102.959 36.5225 102.59 37.0987 102.32 37.7829C102.05 38.4671 101.915 39.2324 101.915 40.0787C101.915 40.907 102.05 41.6632 102.32 42.3474C102.59 43.0137 102.968 43.5899 103.454 44.076C103.941 44.5622 104.526 44.9313 105.21 45.1834C105.912 45.4355 106.686 45.5615 107.533 45.5615C108.109 45.5615 108.658 45.4805 109.18 45.3185C109.702 45.1564 110.18 44.9403 110.612 44.6702C111.062 44.3821 111.458 44.058 111.8 43.6979L114.015 47.2091C113.565 47.7133 112.962 48.1634 112.205 48.5596C111.467 48.9557 110.639 49.2708 109.72 49.5049C108.82 49.721 107.911 49.829 106.993 49.829ZM114.753 49.5589L122.235 30.6525H126.124L133.552 49.5589H128.906L125.341 39.9706C125.197 39.5925 125.053 39.1874 124.909 38.7552C124.765 38.3231 124.621 37.8819 124.477 37.4318C124.333 36.9636 124.188 36.5135 124.044 36.0813C123.918 35.6312 123.81 35.217 123.72 34.8389L124.531 34.8119C124.423 35.262 124.297 35.7032 124.152 36.1353C124.026 36.5675 123.891 36.9996 123.747 37.4318C123.621 37.8459 123.477 38.2691 123.315 38.7012C123.153 39.1154 123 39.5475 122.856 39.9977L119.291 49.5589H114.753ZM118.318 45.9397L119.75 42.4825H128.447L129.851 45.9397H118.318ZM135.911 49.5589V30.6525H140.502V45.5075H148.929V49.5589H135.911Z" fill="#219EBC"/>
</svg>
