<?xml version="1.0" standalone="no"?>
<!DOCTYPE svg PUBLIC "-//W3C//DTD SVG 20010904//EN"
 "http://www.w3.org/TR/2001/REC-SVG-20010904/DTD/svg10.dtd">
<svg version="1.0" xmlns="http://www.w3.org/2000/svg"
 width="700.000000pt" height="700.000000pt" viewBox="0 0 700.000000 700.000000"
 preserveAspectRatio="xMidYMid meet">
<metadata>
Created by potrace 1.14, written by Peter Selinger 2001-2017
</metadata>
<g transform="translate(0.000000,700.000000) scale(0.100000,-0.100000)"
fill="#000000" stroke="none">
<path d="M3278 6996 c-1 -2 -42 -6 -89 -10 -47 -4 -95 -8 -105 -10 -10 -2 -48
-7 -84 -12 -36 -4 -67 -8 -70 -9 -3 -1 -25 -5 -50 -9 -25 -4 -101 -21 -170
-38 -69 -16 -134 -31 -146 -34 -12 -2 -68 -19 -125 -38 -691 -227 -1263 -627
-1703 -1190 -158 -201 -328 -483 -421 -696 -25 -58 -50 -114 -55 -125 -45 -93
-150 -427 -176 -560 -2 -11 -10 -54 -19 -95 -29 -147 -35 -193 -52 -370 -15
-158 -8 -606 12 -708 1 -9 6 -42 9 -73 4 -31 9 -67 12 -80 2 -13 7 -42 9 -64
3 -22 8 -48 11 -57 3 -9 7 -25 9 -36 21 -111 90 -362 100 -362 2 0 82 79 178
176 153 155 174 180 167 199 -4 12 -11 39 -14 61 -4 21 -8 46 -11 54 -10 36
-31 173 -40 265 -3 33 -8 80 -10 105 -6 54 -6 367 -1 430 32 375 100 660 236
987 182 436 530 897 889 1178 35 28 71 57 80 65 30 27 229 160 318 211 221
128 550 263 766 315 9 2 27 6 40 10 57 14 206 43 252 49 220 30 296 36 475 36
152 0 258 -6 375 -22 138 -18 176 -24 314 -55 690 -154 1345 -583 1764 -1154
39 -52 73 -99 77 -103 5 -5 78 61 165 147 l156 157 -38 52 c-202 276 -490 559
-780 765 -360 256 -751 438 -1166 543 -117 29 -240 55 -307 64 -19 3 -46 7
-60 10 -13 2 -54 7 -90 11 -36 3 -76 8 -90 11 -27 5 -536 14 -542 9z"/>
<path d="M1922 3564 c-1361 -1362 -1572 -1578 -1566 -1597 9 -30 87 -175 146
-270 26 -43 48 -81 48 -83 0 -3 4 -10 10 -17 5 -7 46 -64 91 -126 191 -271
403 -494 692 -727 218 -176 555 -371 842 -487 167 -68 459 -158 590 -182 154
-28 257 -45 295 -49 282 -32 696 -28 917 8 21 4 54 9 73 11 19 3 46 7 60 10
14 3 39 7 55 10 300 50 744 214 1039 384 49 28 91 51 93 51 10 0 268 180 353
247 152 119 324 280 450 422 36 41 70 79 76 85 65 68 263 353 352 508 47 80
182 351 182 364 0 3 8 24 19 47 53 118 147 417 177 562 62 298 79 464 79 760
0 224 -10 383 -30 500 -2 17 -7 48 -10 70 -19 134 -81 383 -136 547 -60 179
-194 488 -218 503 -4 2 -353 -342 -775 -764 l-768 -769 -779 779 c-429 429
-780 779 -782 778 -1 0 -710 -709 -1575 -1575z m1686 472 c243 -47 431 -271
435 -519 3 -166 -48 -294 -164 -407 -212 -208 -552 -206 -762 4 -293 293 -171
782 228 909 74 24 181 29 263 13z"/>
</g>
</svg>
